# Blender 4.1.1
# www.blender.org
mtllib tankmdl.mtl
o Cube
v 0.623977 0.600000 -1.000000
v 0.623977 0.000000 -0.584217
v 0.623977 0.500000 1.000000
v 0.623977 0.000000 0.584217
v -0.623977 0.600000 -1.000000
v -0.623977 0.000000 -0.584217
v -0.623977 0.500000 1.000000
v -0.623977 0.000000 0.584217
v 0.623977 0.600000 0.366850
v -0.623977 0.600000 0.366850
v 0.358248 0.000000 -0.584217
v -0.358248 0.000000 -0.584217
v -0.358248 0.000000 0.584217
v 0.358248 0.000000 0.584217
v -0.358248 0.300000 -0.792108
v 0.358248 0.300000 -0.792108
v 0.358248 0.250000 0.792108
v -0.358248 0.250000 0.792108
vn -0.0000 -1.0000 -0.0000
vn -0.0000 1.0000 -0.0000
vn -0.0000 -0.5696 -0.8219
vn -0.0000 -0.6394 0.7689
vn -0.0000 0.9878 0.1560
vn -1.0000 -0.0000 -0.0000
vn 1.0000 -0.0000 -0.0000
vn -0.0000 -0.9995 -0.0315
s 0
usemtl Material
f 11//1 2//1 4//1 14//1
f 1//2 5//2 10//2 9//2
f 6//1 12//1 13//1 8//1
f 15//3 5//3 1//3 16//3
f 17//4 3//4 7//4 18//4
f 9//5 10//5 7//5 3//5
f 4//4 3//4 17//4 14//4
f 6//3 5//3 15//3 12//3
f 8//6 7//6 10//6
f 2//7 1//7 9//7 4//7
f 11//3 16//3 1//3 2//3
f 4//7 9//7 3//7
f 8//6 10//6 5//6 6//6
f 13//4 18//4 7//4 8//4
f 17//6 16//6 11//6 14//6
f 18//7 13//7 12//7 15//7
f 15//8 16//8 17//8 18//8
o Cube.001
v -0.565685 0.606841 -0.300000
v -0.565685 0.926841 -0.300000
v -0.000000 0.606841 -0.865685
v -0.000000 0.926841 -0.865685
v 0.000000 0.606841 0.265685
v 0.000000 0.926841 0.265685
v 0.565685 0.606841 -0.300000
v 0.565685 0.926841 -0.300000
v -0.059644 0.707197 1.500000
v -0.059644 0.826484 1.500000
v -0.100000 0.666841 0.267609
v -0.100000 0.866841 0.267609
v 0.059644 0.707197 1.500000
v 0.059644 0.826484 1.500000
v 0.100000 0.666841 0.267609
v 0.100000 0.866841 0.267609
vn -0.7071 -0.0000 -0.7071
vn 0.7071 -0.0000 -0.7071
vn 0.7071 -0.0000 0.7071
vn -0.7071 -0.0000 0.7071
vn -0.0000 -1.0000 -0.0000
vn -0.0000 1.0000 -0.0000
vn -0.9995 -0.0000 0.0327
vn -0.0000 -0.0000 -1.0000
vn 0.9995 -0.0000 0.0327
vn -0.0000 -0.0000 1.0000
vn -0.0000 -0.9995 0.0327
vn -0.0000 0.9995 0.0327
s 0
f 19//9 20//9 22//9 21//9
f 21//10 22//10 26//10 25//10
f 25//11 26//11 24//11 23//11
f 23//12 24//12 20//12 19//12
f 21//13 25//13 23//13 19//13
f 26//14 22//14 20//14 24//14
f 27//15 28//15 30//15 29//15
f 29//16 30//16 34//16 33//16
f 33//17 34//17 32//17 31//17
f 31//18 32//18 28//18 27//18
f 29//19 33//19 31//19 27//19
f 34//20 30//20 28//20 32//20
